<svg id="Layer_2" data-name="Layer 2" xmlns="http://www.w3.org/2000/svg" xmlns:xlink="http://www.w3.org/1999/xlink" viewBox="0 0 400.67 400.67"><defs><style>.cls-1{fill:#232323;filter:url(#AI_Shadow_1);}.cls-11,.cls-2,.cls-3{fill:none;}.cls-2,.cls-3,.cls-4,.cls-5{stroke:#fff;stroke-miterlimit:10;}.cls-2{stroke-width:4px;}.cls-3{stroke-width:2px;}.cls-4,.cls-5{font-size:25px;}.cls-12,.cls-4,.cls-5,.cls-8{fill:#fff;}.cls-4,.cls-5,.cls-8{font-family:ArialMT, Arial;}.cls-5{stroke-width:0.5px;letter-spacing:0.03em;}.cls-6{letter-spacing:-0.04em;}.cls-7{letter-spacing:0.01em;}.cls-8{font-size:10px;}.cls-9{letter-spacing:-0.02em;}.cls-10{letter-spacing:-0.07em;}</style><filter id="AI_Shadow_1" name="AI_Shadow_1"><feGaussianBlur result="blur" stdDeviation="5" in="SourceAlpha"/><feOffset result="offsetBlurredAlpha" in="blur"/><feMerge><feMergeNode in="offsetBlurredAlpha"/><feMergeNode in="SourceGraphic"/></feMerge></filter></defs><title>Altitude</title><path class="cls-1" d="M200.33,47a153,153,0,1,0,153,153A153,153,0,0,0,200.33,47Zm75.52,174.42a78.4,78.4,0,0,0,0-42.75L325,164.8a130.45,130.45,0,0,1,0,70.55Z"/><line class="cls-2" x1="200.33" y1="49.9" x2="200.33" y2="73.33"/><line class="cls-2" x1="288.56" y1="78.57" x2="274.79" y2="97.53"/><line class="cls-2" x1="343.08" y1="153.62" x2="320.8" y2="160.86"/><line class="cls-2" x1="320.8" y1="239.14" x2="343.08" y2="246.38"/><line class="cls-2" x1="288.56" y1="321.43" x2="274.78" y2="302.48"/><line class="cls-2" x1="200.33" y1="350.1" x2="200.33" y2="326.67"/><line class="cls-2" x1="112.1" y1="321.43" x2="125.88" y2="302.48"/><line class="cls-2" x1="57.58" y1="246.38" x2="79.86" y2="239.14"/><line class="cls-2" x1="57.58" y1="153.62" x2="79.86" y2="160.86"/><line class="cls-2" x1="112.11" y1="78.57" x2="125.88" y2="97.52"/><line class="cls-3" x1="219.15" y1="51.09" x2="217.15" y2="66.94"/><line class="cls-3" x1="237.66" y1="54.62" x2="233.69" y2="70.1"/><line class="cls-3" x1="255.59" y1="60.45" x2="249.71" y2="75.31"/><line class="cls-3" x1="272.64" y1="68.47" x2="264.95" y2="82.48"/><line class="cls-3" x1="303.08" y1="90.59" x2="292.14" y2="102.24"/><line class="cls-3" x1="315.98" y1="104.33" x2="303.67" y2="114.52"/><line class="cls-3" x1="327.06" y1="119.58" x2="313.57" y2="128.14"/><line class="cls-3" x1="336.14" y1="136.1" x2="321.68" y2="142.9"/><line class="cls-3" x1="350.13" y1="190.58" x2="334.18" y2="191.59"/><line class="cls-3" x1="347.76" y1="171.88" x2="332.07" y2="174.88"/><line class="cls-3" x1="350.13" y1="209.43" x2="334.18" y2="208.43"/><line class="cls-3" x1="347.76" y1="228.13" x2="332.07" y2="225.14"/><line class="cls-3" x1="336.14" y1="263.91" x2="321.68" y2="257.11"/><line class="cls-3" x1="327.05" y1="280.43" x2="313.56" y2="271.87"/><line class="cls-3" x1="315.98" y1="295.67" x2="303.66" y2="285.49"/><line class="cls-3" x1="303.07" y1="309.41" x2="292.13" y2="297.77"/><line class="cls-3" x1="272.63" y1="331.53" x2="264.93" y2="317.53"/><line class="cls-3" x1="255.58" y1="339.55" x2="249.69" y2="324.7"/><line class="cls-3" x1="237.65" y1="345.38" x2="233.68" y2="329.9"/><line class="cls-3" x1="219.14" y1="348.91" x2="217.13" y2="333.06"/><line class="cls-3" x1="181.52" y1="348.91" x2="183.52" y2="333.05"/><line class="cls-3" x1="163" y1="345.38" x2="166.97" y2="329.9"/><line class="cls-3" x1="145.07" y1="339.55" x2="150.96" y2="324.69"/><line class="cls-3" x1="128.02" y1="331.52" x2="135.72" y2="317.52"/><line class="cls-3" x1="97.58" y1="309.41" x2="108.52" y2="297.76"/><line class="cls-3" x1="84.68" y1="295.67" x2="96.99" y2="285.48"/><line class="cls-3" x1="73.6" y1="280.42" x2="87.09" y2="271.85"/><line class="cls-3" x1="64.52" y1="263.9" x2="78.98" y2="257.09"/><line class="cls-3" x1="52.9" y1="228.12" x2="68.59" y2="225.12"/><line class="cls-3" x1="50.53" y1="209.42" x2="66.48" y2="208.41"/><line class="cls-3" x1="50.53" y1="190.57" x2="66.49" y2="191.57"/><line class="cls-3" x1="52.9" y1="171.87" x2="68.6" y2="174.86"/><line class="cls-3" x1="64.52" y1="136.09" x2="78.99" y2="142.89"/><line class="cls-3" x1="73.61" y1="119.57" x2="87.1" y2="128.13"/><line class="cls-3" x1="84.69" y1="104.32" x2="97" y2="114.51"/><line class="cls-3" x1="97.59" y1="90.58" x2="108.53" y2="102.23"/><line class="cls-3" x1="128.03" y1="68.47" x2="135.73" y2="82.48"/><line class="cls-3" x1="145.08" y1="60.44" x2="150.97" y2="75.31"/><line class="cls-3" x1="163.01" y1="54.62" x2="166.99" y2="70.1"/><line class="cls-3" x1="181.53" y1="51.09" x2="183.53" y2="66.95"/><text class="cls-4" transform="translate(193.55 98.82)">0</text><text class="cls-5" transform="translate(177.81 162.59)">A<tspan class="cls-6" x="17.42" y="0">L</tspan><tspan class="cls-7" x="30.22" y="0">T</tspan></text><text class="cls-8" transform="translate(117.95 191.92)">RANGE<tspan x="2.77" y="12">U</tspan><tspan class="cls-9" x="10" y="12">P T</tspan><tspan x="25.01" y="12">O</tspan><tspan x="-12.23" y="24">1000 METER</tspan></text><text class="cls-8" transform="translate(218.06 195.91)">ABSOLUTE<tspan x="2.88" y="12">A</tspan><tspan class="cls-10" x="9.55" y="12">L</tspan><tspan x="14.37" y="12">TITUDE</tspan></text><text class="cls-4" transform="translate(257.16 120.98)">1</text><text class="cls-4" transform="translate(299.49 160.88)">2</text><text class="cls-4" transform="translate(299.49 256.76)">3</text><text class="cls-4" transform="translate(258.91 295.23)">4</text><text class="cls-4" transform="translate(193.66 318.48)">5</text><text class="cls-4" transform="translate(127.02 296.23)">6</text><text class="cls-4" transform="translate(89.16 242.76)">7</text><text class="cls-4" transform="translate(87.16 175.23)">8</text><text class="cls-4" transform="translate(129.91 119.98)">9</text><path class="cls-11" d="M174.24,243.81l61.54,38.57a89.7,89.7,0,0,0,8.93-4.48l-66.1-41.42Z"/><path class="cls-11" d="M165.16,259.06l47.48,29.76a87.45,87.45,0,0,0,12.06-2.52l-55.17-34.57Z"/><path class="cls-11" d="M214.73,238.17a40.2,40.2,0,0,1-11.95,2.58l34.69,21.74-9.57-16.07Z"/><path class="cls-11" d="M156.08,274.31l18.44,11.56a89,89,0,0,0,22,3.7L160.44,267Z"/><path class="cls-12" d="M154.45,277a89.28,89.28,0,0,0,20.07,8.83l-18.44-11.56Z"/><path class="cls-12" d="M160.44,267l36.05,22.59c1.27.05,2.55.09,3.84.09a90.78,90.78,0,0,0,12.31-.84l-47.48-29.76Z"/><path class="cls-12" d="M169.53,251.73,224.7,286.3a89.25,89.25,0,0,0,11.08-3.92l-61.54-38.57Z"/><path class="cls-12" d="M200.33,240.83A40.3,40.3,0,0,1,179.47,235l-.86,1.44,66.1,41.42c.48-.27,1-.54,1.44-.82l-8.68-14.59-34.69-21.74C202,240.8,201.15,240.83,200.33,240.83Z"/><path class="cls-12" d="M221.14,235.08a40.7,40.7,0,0,1-6.41,3.09l13.17,8.25Z"/><text class="cls-8" transform="translate(205.17 81.33)">METER</text><text class="cls-8" transform="translate(179.88 81.33)">10</text><text class="cls-8" transform="translate(173.44 137.58)">100 METER</text></svg>