<svg id="Layer_2" data-name="Layer 2" xmlns="http://www.w3.org/2000/svg" viewBox="0 0 400.67 400.67"><defs><style>.cls-1{fill:#232323;}.cls-2{font-size:10px;fill:#fff;font-family:ArialMT, Arial;}.cls-3,.cls-4{fill:none;stroke:#fff;stroke-miterlimit:10;}.cls-3{stroke-width:2px;}.cls-5{letter-spacing:-0.07em;}</style></defs><title>Pressure</title><circle class="cls-1" cx="200.39" cy="199.98" r="161"/><text class="cls-2" transform="translate(289.65 203.83)">350</text><text class="cls-2" transform="translate(287.63 219.32) rotate(10)">400</text><text class="cls-2" transform="translate(282.93 234.13) rotate(20)">450</text><text class="cls-2" transform="translate(288.99 188.27) rotate(-10)">300</text><text class="cls-2" transform="translate(285.55 173.03) rotate(-20)">250</text><text class="cls-2" transform="translate(279.64 158.7) rotate(-30)">200</text><text class="cls-2" transform="translate(271.2 145.47) rotate(-40)">150</text><text class="cls-2" transform="translate(260.67 134.1) rotate(-50)">100</text><text class="cls-2" transform="translate(251.13 119.71) rotate(-60)">50</text><text class="cls-2" transform="translate(238.27 106.95) rotate(-70)">0</text><text class="cls-2" transform="translate(220.04 110.5) rotate(-80)">-50</text><text class="cls-2" transform="translate(204.09 114.09) rotate(-90)">-100</text><line class="cls-3" x1="313.56" y1="200.33" x2="324.17" y2="200.33"/><line class="cls-4" x1="315.8" y1="196.3" x2="321.8" y2="196.09"/><line class="cls-4" x1="315.6" y1="192.27" x2="321.59" y2="191.85"/><line class="cls-4" x1="315.26" y1="188.25" x2="321.23" y2="187.63"/><line class="cls-4" x1="314.78" y1="184.25" x2="320.73" y2="183.42"/><line class="cls-3" x1="311.78" y1="219.99" x2="322.23" y2="221.83"/><line class="cls-4" x1="314.69" y1="216.41" x2="320.64" y2="217.24"/><line class="cls-4" x1="315.19" y1="212.41" x2="321.16" y2="213.03"/><line class="cls-4" x1="315.56" y1="208.39" x2="321.55" y2="208.81"/><line class="cls-4" x1="315.78" y1="204.36" x2="321.78" y2="204.57"/><line class="cls-3" x1="306.62" y1="239.04" x2="316.58" y2="242.66"/><line class="cls-4" x1="310.1" y1="236.02" x2="315.81" y2="237.87"/><line class="cls-4" x1="311.29" y1="232.16" x2="317.06" y2="233.82"/><line class="cls-4" x1="312.35" y1="228.27" x2="318.17" y2="229.72"/><line class="cls-4" x1="313.27" y1="224.34" x2="319.14" y2="225.59"/><line class="cls-4" x1="302.18" y1="254.53" x2="307.48" y2="257.35"/><line class="cls-4" x1="304.02" y1="250.94" x2="309.42" y2="253.57"/><line class="cls-4" x1="305.74" y1="247.29" x2="311.22" y2="249.73"/><line class="cls-4" x1="307.32" y1="243.59" x2="312.89" y2="245.84"/><line class="cls-4" x1="314.16" y1="180.27" x2="320.08" y2="179.23"/><line class="cls-4" x1="313.41" y1="176.31" x2="319.28" y2="175.06"/><line class="cls-4" x1="312.51" y1="172.38" x2="318.34" y2="170.92"/><line class="cls-4" x1="311.48" y1="168.48" x2="317.25" y2="166.82"/><line class="cls-4" x1="310.31" y1="164.62" x2="316.02" y2="162.76"/><line class="cls-4" x1="309.01" y1="160.8" x2="314.65" y2="158.75"/><line class="cls-4" x1="307.57" y1="157.03" x2="313.14" y2="154.79"/><line class="cls-4" x1="306.01" y1="153.32" x2="311.5" y2="150.88"/><line class="cls-4" x1="304.32" y1="149.66" x2="309.72" y2="147.03"/><line class="cls-4" x1="302.5" y1="146.06" x2="307.8" y2="143.24"/><line class="cls-4" x1="300.55" y1="142.53" x2="305.75" y2="139.53"/><line class="cls-4" x1="298.49" y1="139.07" x2="303.58" y2="135.88"/><line class="cls-4" x1="296.3" y1="135.68" x2="301.28" y2="132.32"/><line class="cls-4" x1="294" y1="132.37" x2="298.85" y2="128.84"/><line class="cls-4" x1="291.58" y1="129.14" x2="296.31" y2="125.44"/><line class="cls-4" x1="289.05" y1="126" x2="293.65" y2="122.14"/><line class="cls-4" x1="286.41" y1="122.95" x2="290.88" y2="118.93"/><line class="cls-4" x1="283.67" y1="119.99" x2="287.99" y2="115.82"/><line class="cls-4" x1="280.83" y1="117.13" x2="285" y2="112.81"/><line class="cls-4" x1="277.89" y1="114.37" x2="281.91" y2="109.91"/><line class="cls-4" x1="274.85" y1="111.72" x2="278.71" y2="107.12"/><line class="cls-4" x1="271.73" y1="109.17" x2="275.43" y2="104.44"/><line class="cls-4" x1="268.52" y1="106.74" x2="272.04" y2="101.88"/><line class="cls-4" x1="265.22" y1="104.41" x2="268.58" y2="99.44"/><line class="cls-4" x1="261.84" y1="102.21" x2="265.03" y2="97.12"/><line class="cls-4" x1="258.39" y1="100.12" x2="261.4" y2="94.92"/><line class="cls-4" x1="254.87" y1="98.16" x2="257.69" y2="92.86"/><line class="cls-4" x1="251.29" y1="96.32" x2="253.92" y2="90.92"/><line class="cls-4" x1="247.64" y1="94.6" x2="250.08" y2="89.12"/><line class="cls-4" x1="243.93" y1="93.02" x2="246.18" y2="87.45"/><line class="cls-4" x1="240.17" y1="91.56" x2="242.22" y2="85.92"/><line class="cls-4" x1="236.36" y1="90.24" x2="238.22" y2="84.53"/><line class="cls-4" x1="232.51" y1="89.05" x2="234.16" y2="83.27"/><line class="cls-4" x1="228.62" y1="87.99" x2="230.07" y2="82.17"/><line class="cls-4" x1="224.69" y1="87.07" x2="225.94" y2="81.2"/><line class="cls-4" x1="220.73" y1="86.29" x2="221.78" y2="80.38"/><line class="cls-4" x1="216.75" y1="85.65" x2="217.59" y2="79.7"/><line class="cls-4" x1="212.75" y1="85.15" x2="213.38" y2="79.18"/><line class="cls-4" x1="208.74" y1="84.78" x2="209.16" y2="78.79"/><line class="cls-4" x1="204.71" y1="84.56" x2="204.92" y2="78.56"/><line class="cls-4" x1="196.65" y1="84.53" x2="196.44" y2="78.54"/><line class="cls-4" x1="192.62" y1="84.73" x2="192.2" y2="78.75"/><line class="cls-4" x1="188.6" y1="85.07" x2="187.98" y2="79.1"/><line class="cls-4" x1="184.6" y1="85.55" x2="183.76" y2="79.61"/><line class="cls-3" x1="311.9" y1="180.67" x2="322.34" y2="178.82"/><line class="cls-3" x1="306.85" y1="161.59" x2="316.81" y2="157.96"/><line class="cls-3" x1="298.56" y1="143.67" x2="307.74" y2="138.37"/><line class="cls-3" x1="287.29" y1="127.47" x2="295.41" y2="120.66"/><line class="cls-3" x1="273.37" y1="113.48" x2="280.19" y2="105.35"/><line class="cls-3" x1="257.24" y1="102.11" x2="262.54" y2="92.92"/><line class="cls-3" x1="239.37" y1="93.71" x2="243" y2="83.75"/><line class="cls-3" x1="220.32" y1="88.55" x2="222.16" y2="78.11"/><line class="cls-3" x1="200.67" y1="86.77" x2="200.67" y2="76.17"/><text class="cls-2" transform="matrix(-0.64, 0.77, -0.77, -0.64, 143.8, 263.68)">1000</text><text class="cls-2" transform="translate(133.86 252.93) rotate(139.66)">1050</text><text class="cls-2" transform="translate(125.38 241.02) rotate(149.66)"><tspan class="cls-5">1</tspan><tspan x="4.82" y="0">100</tspan></text><text class="cls-2" transform="translate(152.66 277.39) rotate(119.66)">950</text><text class="cls-2" transform="translate(166.58 284.47) rotate(109.66)">900</text><text class="cls-2" transform="translate(181.39 289.07) rotate(99.66)">850</text><text class="cls-2" transform="matrix(0.01, 1, -1, 0.01, 196.95, 291.01)">800</text><text class="cls-2" transform="translate(212.43 290.16) rotate(79.66)">750</text><text class="cls-2" transform="translate(227.66 286.79) rotate(69.66)">700</text><text class="cls-2" transform="translate(242.01 280.65) rotate(59.66)">650</text><text class="cls-2" transform="translate(255.08 272.25) rotate(49.66)">600</text><text class="cls-2" transform="translate(266.51 261.5) rotate(39.66)">550</text><line class="cls-3" x1="127.69" y1="288.61" x2="120.92" y2="296.77"/><line class="cls-4" x1="129.36" y1="292.91" x2="125.69" y2="297.66"/><line class="cls-4" x1="132.59" y1="295.32" x2="129.09" y2="300.2"/><line class="cls-4" x1="135.9" y1="297.63" x2="132.57" y2="302.62"/><line class="cls-4" x1="139.29" y1="299.81" x2="136.13" y2="304.92"/><line class="cls-3" x1="113.69" y1="274.69" x2="105.61" y2="281.56"/><line class="cls-4" x1="114.59" y1="279.22" x2="110.15" y2="283.26"/><line class="cls-4" x1="117.35" y1="282.16" x2="113.06" y2="286.35"/><line class="cls-4" x1="120.21" y1="285" x2="116.06" y2="289.34"/><line class="cls-4" x1="123.17" y1="287.74" x2="119.18" y2="292.23"/><line class="cls-3" x1="102.32" y1="258.56" x2="93.17" y2="263.91"/><line class="cls-4" x1="102.42" y1="263.17" x2="97.35" y2="266.38"/><line class="cls-4" x1="104.63" y1="266.54" x2="99.67" y2="269.93"/><line class="cls-4" x1="106.95" y1="269.84" x2="102.12" y2="273.4"/><line class="cls-4" x1="109.39" y1="273.05" x2="104.68" y2="276.78"/><line class="cls-4" x1="93.23" y1="245.25" x2="87.67" y2="247.54"/><line class="cls-4" x1="94.82" y1="248.96" x2="89.34" y2="251.43"/><line class="cls-4" x1="96.53" y1="252.61" x2="91.15" y2="255.27"/><line class="cls-4" x1="98.37" y1="256.2" x2="93.09" y2="259.05"/><line class="cls-4" x1="142.75" y1="301.88" x2="139.78" y2="307.09"/><line class="cls-4" x1="146.28" y1="303.82" x2="143.49" y2="309.14"/><line class="cls-4" x1="149.88" y1="305.64" x2="147.28" y2="311.05"/><line class="cls-4" x1="153.54" y1="307.33" x2="151.13" y2="312.83"/><line class="cls-4" x1="157.25" y1="308.9" x2="155.04" y2="314.48"/><line class="cls-4" x1="161.02" y1="310.33" x2="159" y2="315.99"/><line class="cls-4" x1="164.84" y1="311.63" x2="163.02" y2="317.36"/><line class="cls-4" x1="168.7" y1="312.8" x2="167.08" y2="318.58"/><line class="cls-4" x1="172.6" y1="313.83" x2="171.18" y2="319.67"/><line class="cls-4" x1="176.53" y1="314.73" x2="175.31" y2="320.61"/><line class="cls-4" x1="180.49" y1="315.49" x2="179.48" y2="321.41"/><line class="cls-4" x1="184.47" y1="316.11" x2="183.67" y2="322.06"/><line class="cls-4" x1="188.48" y1="316.59" x2="187.88" y2="322.56"/><line class="cls-4" x1="192.49" y1="316.92" x2="192.11" y2="322.92"/><line class="cls-4" x1="196.52" y1="317.12" x2="196.35" y2="323.13"/><line class="cls-4" x1="200.55" y1="317.18" x2="200.59" y2="323.19"/><line class="cls-4" x1="204.58" y1="317.1" x2="204.83" y2="323.1"/><line class="cls-4" x1="208.61" y1="316.88" x2="209.06" y2="322.86"/><line class="cls-4" x1="212.63" y1="316.51" x2="213.29" y2="322.48"/><line class="cls-4" x1="216.63" y1="316.01" x2="217.5" y2="321.95"/><line class="cls-4" x1="220.61" y1="315.37" x2="221.68" y2="321.27"/><line class="cls-4" x1="224.56" y1="314.59" x2="225.85" y2="320.45"/><line class="cls-4" x1="228.49" y1="313.67" x2="229.98" y2="319.49"/><line class="cls-4" x1="232.38" y1="312.61" x2="234.07" y2="318.37"/><line class="cls-4" x1="236.23" y1="311.42" x2="238.12" y2="317.12"/><line class="cls-4" x1="240.04" y1="310.1" x2="242.13" y2="315.73"/><line class="cls-4" x1="243.8" y1="308.64" x2="246.08" y2="314.2"/><line class="cls-4" x1="247.51" y1="307.06" x2="249.98" y2="312.53"/><line class="cls-4" x1="251.16" y1="305.34" x2="253.82" y2="310.72"/><line class="cls-4" x1="254.74" y1="303.5" x2="257.59" y2="308.78"/><line class="cls-4" x1="258.27" y1="301.53" x2="261.3" y2="306.72"/><line class="cls-4" x1="261.72" y1="299.45" x2="264.93" y2="304.52"/><line class="cls-4" x1="265.09" y1="297.24" x2="268.48" y2="302.2"/><line class="cls-4" x1="268.39" y1="294.92" x2="271.94" y2="299.75"/><line class="cls-4" x1="271.6" y1="292.48" x2="275.32" y2="297.19"/><line class="cls-4" x1="274.73" y1="289.94" x2="278.61" y2="294.51"/><line class="cls-4" x1="277.76" y1="287.28" x2="281.8" y2="291.72"/><line class="cls-4" x1="280.7" y1="284.52" x2="284.9" y2="288.82"/><line class="cls-4" x1="283.54" y1="281.66" x2="287.89" y2="285.81"/><line class="cls-4" x1="286.29" y1="278.71" x2="290.77" y2="282.7"/><line class="cls-4" x1="291.45" y1="272.51" x2="296.2" y2="276.18"/><line class="cls-4" x1="293.87" y1="269.29" x2="298.75" y2="272.79"/><line class="cls-4" x1="296.17" y1="265.98" x2="301.17" y2="269.31"/><line class="cls-4" x1="298.49" y1="262.67" x2="303.6" y2="265.82"/><line class="cls-3" x1="143.89" y1="299.88" x2="138.64" y2="309.09"/><line class="cls-3" x1="161.8" y1="308.17" x2="158.23" y2="318.15"/><line class="cls-3" x1="180.88" y1="313.22" x2="179.1" y2="323.67"/><line class="cls-3" x1="200.55" y1="314.88" x2="200.61" y2="325.49"/><line class="cls-3" x1="220.2" y1="313.1" x2="222.11" y2="323.54"/><line class="cls-3" x1="239.25" y1="307.94" x2="242.94" y2="317.88"/><line class="cls-3" x1="257.11" y1="299.55" x2="262.47" y2="308.7"/><line class="cls-3" x1="273.25" y1="288.18" x2="280.11" y2="296.26"/><line class="cls-3" x1="287.16" y1="274.18" x2="295.33" y2="280.95"/><text class="cls-2" transform="translate(187.18 116.97) rotate(-101.25)">1650</text><text class="cls-2" transform="translate(172.97 120.38) rotate(-111.25)">1600</text><text class="cls-2" transform="translate(159.57 126.3) rotate(-121.25)">1550</text><text class="cls-2" transform="translate(147.45 134.32) rotate(-131.25)">1500</text><text class="cls-2" transform="matrix(-0.78, -0.63, 0.63, -0.78, 136.79, 144.48)">1450</text><text class="cls-2" transform="translate(128.23 156.22) rotate(-151.25)">1400</text><text class="cls-2" transform="translate(121.64 169.28) rotate(-161.25)">1350</text><text class="cls-2" transform="translate(117.59 183.35) rotate(-171.25)">1300</text><text class="cls-2" transform="translate(115.94 197.83) rotate(178.75)">1250</text><text class="cls-2" transform="matrix(-0.98, 0.2, -0.2, -0.98, 116.97, 212.51)">1200</text><line class="cls-3" x1="177.99" y1="88.74" x2="175.92" y2="78.34"/><line class="cls-4" x1="173.6" y1="87.33" x2="172.22" y2="81.49"/><line class="cls-4" x1="169.69" y1="88.31" x2="168.11" y2="82.52"/><line class="cls-4" x1="165.82" y1="89.43" x2="164.04" y2="83.7"/><line class="cls-4" x1="161.98" y1="90.68" x2="160" y2="85.02"/><line class="cls-4" x1="181.51" y1="85.78" x2="180.55" y2="79.86"/><line class="cls-4" x1="158.2" y1="92.07" x2="156.02" y2="86.47"/><line class="cls-4" x1="154.46" y1="93.59" x2="152.09" y2="88.07"/><line class="cls-4" x1="150.78" y1="95.23" x2="148.22" y2="89.8"/><line class="cls-4" x1="147.16" y1="97" x2="144.41" y2="91.67"/><line class="cls-4" x1="143.6" y1="98.9" x2="140.67" y2="93.66"/><line class="cls-4" x1="140.11" y1="100.92" x2="137" y2="95.79"/><line class="cls-4" x1="136.7" y1="103.07" x2="133.4" y2="98.04"/><line class="cls-4" x1="133.36" y1="105.33" x2="129.89" y2="100.42"/><line class="cls-4" x1="130.1" y1="107.7" x2="126.46" y2="102.92"/><line class="cls-4" x1="126.92" y1="110.19" x2="123.12" y2="105.54"/><line class="cls-4" x1="123.84" y1="112.78" x2="119.88" y2="108.27"/><line class="cls-4" x1="120.85" y1="115.49" x2="116.73" y2="111.11"/><line class="cls-4" x1="117.95" y1="118.29" x2="113.69" y2="114.06"/><line class="cls-4" x1="115.15" y1="121.2" x2="110.74" y2="117.12"/><line class="cls-4" x1="112.46" y1="124.2" x2="107.91" y2="120.28"/><line class="cls-4" x1="109.87" y1="127.29" x2="105.19" y2="123.53"/><line class="cls-4" x1="107.4" y1="130.47" x2="102.58" y2="126.88"/><line class="cls-4" x1="105.03" y1="133.74" x2="100.1" y2="130.31"/><line class="cls-4" x1="102.78" y1="137.08" x2="97.73" y2="133.83"/><line class="cls-4" x1="100.65" y1="140.51" x2="95.49" y2="137.44"/><line class="cls-4" x1="98.64" y1="144" x2="93.37" y2="141.11"/><line class="cls-4" x1="96.75" y1="147.56" x2="91.39" y2="144.86"/><line class="cls-4" x1="94.99" y1="151.19" x2="89.54" y2="148.68"/><line class="cls-4" x1="93.35" y1="154.88" x2="87.82" y2="152.55"/><line class="cls-4" x1="91.85" y1="158.62" x2="86.23" y2="156.49"/><line class="cls-4" x1="90.48" y1="162.41" x2="84.79" y2="160.48"/><line class="cls-4" x1="89.24" y1="166.25" x2="83.49" y2="164.51"/><line class="cls-4" x1="88.13" y1="170.12" x2="82.32" y2="168.59"/><line class="cls-4" x1="87.16" y1="174.04" x2="81.31" y2="172.71"/><line class="cls-4" x1="86.33" y1="177.98" x2="80.43" y2="176.86"/><line class="cls-4" x1="85.63" y1="181.95" x2="79.7" y2="181.04"/><line class="cls-4" x1="85.08" y1="185.95" x2="79.12" y2="185.24"/><line class="cls-4" x1="84.66" y1="189.96" x2="78.68" y2="189.46"/><line class="cls-4" x1="84.39" y1="193.98" x2="78.39" y2="193.69"/><line class="cls-4" x1="84.25" y1="198.01" x2="78.25" y2="197.93"/><line class="cls-4" x1="84.26" y1="202.04" x2="78.26" y2="202.17"/><line class="cls-4" x1="84.41" y1="206.07" x2="78.41" y2="206.41"/><line class="cls-4" x1="84.69" y1="210.09" x2="78.72" y2="210.64"/><line class="cls-4" x1="85.12" y1="214.1" x2="79.17" y2="214.86"/><line class="cls-4" x1="85.69" y1="218.1" x2="79.76" y2="219.06"/><line class="cls-4" x1="87.24" y1="226.01" x2="81.39" y2="227.38"/><line class="cls-4" x1="88.22" y1="229.92" x2="82.43" y2="231.5"/><line class="cls-4" x1="89.34" y1="233.79" x2="83.6" y2="235.57"/><line class="cls-4" x1="90.59" y1="237.63" x2="84.92" y2="239.61"/><line class="cls-3" x1="159.03" y1="94.21" x2="155.18" y2="84.33"/><line class="cls-3" x1="141.3" y1="102.89" x2="135.8" y2="93.83"/><line class="cls-3" x1="125.35" y1="114.52" x2="118.36" y2="106.54"/><line class="cls-3" x1="111.66" y1="128.73" x2="103.39" y2="122.1"/><line class="cls-3" x1="100.65" y1="145.11" x2="91.35" y2="140.01"/><line class="cls-3" x1="92.65" y1="163.16" x2="82.61" y2="159.75"/><line class="cls-3" x1="87.9" y1="182.31" x2="77.42" y2="180.7"/><line class="cls-3" x1="86.56" y1="202" x2="75.95" y2="202.24"/><line class="cls-3" x1="88.65" y1="221.63" x2="78.25" y2="223.7"/><line class="cls-3" x1="297.55" y1="256.6" x2="306.89" y2="261.87"/><line class="cls-3" x1="95.98" y1="239.69" x2="86.02" y2="243.34"/><text class="cls-2" transform="translate(276.21 247.91) rotate(28.7)">500</text><text class="cls-2" transform="translate(118.34 226.04) rotate(157.11)"><tspan class="cls-5">1</tspan><tspan x="4.82" y="0">150</tspan></text></svg>