<svg id="Layer_2" data-name="Layer 2" xmlns="http://www.w3.org/2000/svg" viewBox="0 0 400.67 400.67"><defs><style>.cls-1{fill:#232323;}.cls-2,.cls-3,.cls-4,.cls-5,.cls-6{fill:none;}.cls-2{stroke:#f9ff00;}.cls-2,.cls-3,.cls-4,.cls-5,.cls-6,.cls-7,.cls-8{stroke-miterlimit:10;}.cls-2,.cls-3,.cls-4{stroke-width:10px;}.cls-3{stroke:red;}.cls-4{stroke:#007511;}.cls-5,.cls-6,.cls-7,.cls-8{stroke:#fff;}.cls-5{stroke-width:4px;}.cls-6{stroke-width:2px;}.cls-7{font-size:20px;}.cls-7,.cls-8{fill:#fff;stroke-width:0.5px;font-family:ArialMT, Arial;}.cls-8{font-size:14px;letter-spacing:0.03em;}</style></defs><title>Artboard 1</title><circle class="cls-1" cx="200.33" cy="200" r="161"/><path class="cls-2" d="M57.4,175.09C44,251.23,91.47,315,149.83,336"/><path class="cls-3" d="M106.85,89a145.94,145.94,0,0,0-49.51,86.37"/><path class="cls-4" d="M151.63,336.66c40.37,14.45,85.52,10.28,121.51-10.49,62.8-36.26,97.12-122.44,53.19-198.53"/><line class="cls-5" x1="296.81" y1="85.02" x2="281.75" y2="102.97"/><line class="cls-5" x1="310.03" y1="136.67" x2="330.32" y2="124.95"/><line class="cls-5" x1="348.15" y1="173.94" x2="325.08" y2="178.01"/><line class="cls-5" x1="348.15" y1="226.07" x2="325.08" y2="222"/><line class="cls-5" x1="330.32" y1="275.05" x2="310.03" y2="263.34"/><line class="cls-5" x1="296.81" y1="314.98" x2="281.75" y2="297.04"/><line class="cls-5" x1="251.67" y1="341.05" x2="243.65" y2="319.03"/><line class="cls-5" x1="200.33" y1="350.1" x2="200.33" y2="326.67"/><line class="cls-5" x1="148.99" y1="341.04" x2="157.01" y2="319.03"/><line class="cls-5" x1="103.85" y1="314.98" x2="118.91" y2="297.03"/><line class="cls-5" x1="70.34" y1="275.05" x2="90.63" y2="263.33"/><line class="cls-5" x1="52.52" y1="226.06" x2="75.59" y2="222"/><line class="cls-5" x1="52.52" y1="173.93" x2="75.59" y2="178"/><line class="cls-5" x1="70.35" y1="124.95" x2="90.63" y2="136.67"/><line class="cls-5" x1="103.85" y1="85.02" x2="118.91" y2="102.97"/><line class="cls-6" x1="315.31" y1="103.52" x2="303.07" y2="113.8"/><line class="cls-5" x1="251.67" y1="58.96" x2="243.65" y2="80.97"/><line class="cls-6" x1="275.38" y1="70.02" x2="267.39" y2="83.86"/><line class="cls-5" x1="200.33" y1="49.9" x2="200.33" y2="73.33"/><line class="cls-6" x1="226.4" y1="52.19" x2="223.63" y2="67.92"/><line class="cls-6" x1="213.42" y1="50.48" x2="212.44" y2="61.62"/><line class="cls-6" x1="239.18" y1="55.02" x2="236.29" y2="65.82"/><line class="cls-6" x1="263.77" y1="63.97" x2="259.04" y2="74.11"/><line class="cls-6" x1="286.42" y1="77.05" x2="280.01" y2="86.21"/><line class="cls-6" x1="341.38" y1="148.67" x2="326.36" y2="154.14"/><line class="cls-6" x1="350.43" y1="200" x2="334.45" y2="200.01"/><line class="cls-6" x1="341.38" y1="251.34" x2="326.36" y2="245.88"/><line class="cls-6" x1="315.31" y1="296.48" x2="303.07" y2="286.21"/><line class="cls-6" x1="275.38" y1="329.99" x2="267.38" y2="316.15"/><line class="cls-6" x1="226.4" y1="347.82" x2="223.62" y2="332.08"/><line class="cls-6" x1="174.27" y1="347.82" x2="177.04" y2="332.08"/><line class="cls-6" x1="125.28" y1="329.99" x2="133.27" y2="316.14"/><line class="cls-6" x1="85.35" y1="296.48" x2="97.59" y2="286.2"/><line class="cls-6" x1="59.29" y1="251.34" x2="74.3" y2="245.86"/><line class="cls-6" x1="50.23" y1="200" x2="66.22" y2="199.99"/><line class="cls-6" x1="59.29" y1="148.66" x2="74.31" y2="154.13"/><line class="cls-6" x1="85.35" y1="103.52" x2="97.6" y2="113.79"/><text class="cls-7" transform="translate(257.66 123.65)">5</text><text class="cls-7" transform="translate(292.16 187.15)">10</text><text class="cls-7" transform="translate(267.38 263.34)">15</text><text class="cls-7" transform="translate(225.01 302.15)">20</text><text class="cls-7" transform="translate(153 302.15)">25</text><text class="cls-7" transform="translate(107.16 256.65)">30</text><text class="cls-7" transform="translate(91.47 184.65)">35</text><text class="cls-7" transform="translate(125.28 123.65)">40</text><text class="cls-8" transform="translate(188.64 256.19)">m/s</text><text class="cls-8" transform="translate(161.31 165.19)">AIR SPEED</text><text class="cls-7" transform="translate(194.66 99.65)">0</text></svg>