<svg id="Layer_2" data-name="Layer 2" xmlns="http://www.w3.org/2000/svg" viewBox="0 0 400.67 400.67"><defs><style>.cls-1{fill:#232323;}.cls-2,.cls-3{fill:none;}.cls-10,.cls-2,.cls-3,.cls-4,.cls-5,.cls-6,.cls-7,.cls-9{stroke:#fff;stroke-miterlimit:10;}.cls-2{stroke-width:4px;}.cls-3{stroke-width:2px;}.cls-4,.cls-7,.cls-9{font-size:25px;}.cls-10,.cls-4,.cls-5,.cls-6,.cls-7,.cls-9{fill:#fff;}.cls-10,.cls-4,.cls-6,.cls-7,.cls-9{font-family:CenturyGothic, Century Gothic;}.cls-6{font-size:10px;}.cls-10,.cls-6{stroke-width:0.5px;}.cls-7{stroke-width:1.5px;}.cls-8,.cls-9{letter-spacing:-0.14em;}.cls-10{font-size:14px;letter-spacing:0.03em;}</style></defs><title>Vertical</title><circle class="cls-1" cx="200.33" cy="200" r="161"/><line class="cls-2" x1="50.23" y1="200" x2="73.67" y2="200"/><line class="cls-2" x1="94.2" y1="93.86" x2="110.77" y2="110.43"/><line class="cls-2" x1="200.33" y1="49.9" x2="200.33" y2="73.33"/><line class="cls-2" x1="306.47" y1="93.87" x2="289.9" y2="110.43"/><line class="cls-2" x1="348.58" y1="223.48" x2="325.44" y2="219.81"/><line class="cls-2" x1="348.58" y1="176.52" x2="325.44" y2="180.18"/><line class="cls-2" x1="306.47" y1="306.14" x2="289.9" y2="289.57"/><line class="cls-2" x1="200.33" y1="350.1" x2="200.33" y2="326.67"/><line class="cls-2" x1="94.2" y1="306.14" x2="110.77" y2="289.57"/><line class="cls-3" x1="50.7" y1="188.22" x2="66.63" y2="189.48"/><line class="cls-3" x1="52.08" y1="176.52" x2="67.86" y2="179.02"/><line class="cls-3" x1="54.38" y1="164.96" x2="69.92" y2="168.69"/><line class="cls-3" x1="57.58" y1="153.62" x2="72.78" y2="158.55"/><line class="cls-3" x1="61.66" y1="142.56" x2="76.42" y2="148.67"/><line class="cls-3" x1="66.59" y1="131.86" x2="80.83" y2="139.11"/><line class="cls-3" x1="72.35" y1="121.57" x2="85.98" y2="129.92"/><line class="cls-3" x1="78.9" y1="111.77" x2="91.83" y2="121.16"/><line class="cls-3" x1="86.2" y1="102.52" x2="98.35" y2="112.89"/><line class="cls-3" x1="50.7" y1="211.78" x2="66.63" y2="210.52"/><line class="cls-3" x1="52.08" y1="223.48" x2="67.87" y2="220.98"/><line class="cls-3" x1="54.38" y1="235.04" x2="69.92" y2="231.31"/><line class="cls-3" x1="57.58" y1="246.38" x2="72.78" y2="241.44"/><line class="cls-3" x1="61.66" y1="257.44" x2="76.42" y2="251.32"/><line class="cls-3" x1="66.6" y1="268.14" x2="80.83" y2="260.89"/><line class="cls-3" x1="72.35" y1="278.43" x2="85.98" y2="270.08"/><line class="cls-3" x1="78.9" y1="288.23" x2="91.83" y2="278.83"/><line class="cls-3" x1="86.2" y1="297.48" x2="98.35" y2="287.1"/><line class="cls-3" x1="112.11" y1="321.43" x2="121.5" y2="308.5"/><line class="cls-3" x1="132.19" y1="333.74" x2="139.44" y2="319.5"/><line class="cls-3" x1="153.95" y1="342.75" x2="158.89" y2="327.55"/><line class="cls-3" x1="176.85" y1="348.25" x2="179.35" y2="332.47"/><line class="cls-3" x1="223.81" y1="348.25" x2="221.31" y2="332.47"/><line class="cls-3" x1="246.72" y1="342.75" x2="241.78" y2="327.55"/><line class="cls-3" x1="268.48" y1="333.74" x2="261.22" y2="319.5"/><line class="cls-3" x1="288.56" y1="321.43" x2="279.16" y2="308.51"/><line class="cls-3" x1="321.76" y1="288.23" x2="308.83" y2="278.84"/><line class="cls-3" x1="334.07" y1="268.15" x2="319.83" y2="260.89"/><line class="cls-3" x1="343.08" y1="246.39" x2="327.89" y2="241.45"/><line class="cls-3" x1="343.09" y1="153.62" x2="327.89" y2="158.56"/><line class="cls-3" x1="334.07" y1="131.86" x2="319.83" y2="139.12"/><line class="cls-3" x1="321.77" y1="111.78" x2="308.84" y2="121.17"/><line class="cls-3" x1="288.56" y1="78.57" x2="279.17" y2="91.5"/><line class="cls-3" x1="268.48" y1="66.27" x2="261.23" y2="80.51"/><line class="cls-3" x1="246.72" y1="57.25" x2="241.78" y2="72.45"/><line class="cls-3" x1="223.81" y1="51.75" x2="221.32" y2="67.54"/><line class="cls-3" x1="176.85" y1="51.75" x2="179.36" y2="67.54"/><line class="cls-3" x1="153.95" y1="57.25" x2="158.89" y2="72.45"/><line class="cls-3" x1="132.19" y1="66.27" x2="139.45" y2="80.5"/><line class="cls-3" x1="112.11" y1="78.57" x2="121.51" y2="91.5"/><path class="cls-3" d="M337,178.35s3,8.32,3,22c0,13.17-3,21.32-3,21.32"/><text class="cls-4" transform="translate(83.2 208.17)">0</text><path class="cls-3" d="M121.42,181.29H85.17A62.52,62.52,0,0,1,87.47,170a56.58,56.58,0,0,1,4-10.06"/><polygon class="cls-5" points="92.04 158.55 88.17 160.79 92.81 162.73 92.04 158.55"/><path class="cls-3" d="M121.42,218.71H85.17A62.52,62.52,0,0,0,87.47,230a56.58,56.58,0,0,0,4,10.06"/><polygon class="cls-5" points="92.04 241.45 88.17 239.21 92.81 237.27 92.04 241.45"/><text class="cls-6" transform="translate(125 184.67)">UP</text><text class="cls-6" transform="translate(125 222.67)">DOWN</text><text class="cls-7" transform="translate(193.66 102.15)">1</text><text class="cls-7" transform="translate(192.66 316.5)">1</text><text class="cls-4" transform="translate(112.11 131.86)">.5</text><text class="cls-4" transform="translate(112.11 283.53)">.5</text><text class="cls-4" transform="translate(258.85 135.48)"><tspan class="cls-8">1</tspan><tspan x="10.35" y="0">.5</tspan></text><text class="cls-4" transform="translate(261.22 281.82)"><tspan class="cls-8">1</tspan><tspan x="10.35" y="0">.5</tspan></text><text class="cls-9" transform="translate(304.9 208.52)">2</text><text class="cls-10" transform="translate(143.45 165.69)">VERTICAL SPEED</text><text class="cls-10" transform="translate(115.45 247.36)">10 METERS PER SECOND</text></svg>