<?xml version="1.0" encoding="utf-8"?>
<!-- Generator: Adobe Illustrator 22.1.0, SVG Export Plug-In . SVG Version: 6.00 Build 0)  -->
<svg version="1.1" id="Ebene_1" xmlns="http://www.w3.org/2000/svg" xmlns:xlink="http://www.w3.org/1999/xlink" x="0px" y="0px"
	 viewBox="0 0 576 512" style="enable-background:new 0 0 576 512;" xml:space="preserve">
<style type="text/css">
	.st0{fill:#8BC34A;}
</style>
<path class="st0" d="M288,32C128.9,32,0,160.9,0,320c0,52.8,14.3,102.3,39.1,144.8c5.6,9.6,16.3,15.2,27.4,15.2h443
	c11.1,0,21.8-5.6,27.4-15.2c24.8-42.5,39.1-92,39.1-144.8C576,160.9,447.1,32,288,32z M288,96c14.7,0,26.6,10.1,30.3,23.7
	c-1.1,2.3-2.6,4.2-3.5,6.7l-9.2,27.7c-5.1,3.5-11,6-17.6,6c-17.7,0-32-14.3-32-32S270.3,96,288,96z M96,384c-17.7,0-32-14.3-32-32
	s14.3-32,32-32s32,14.3,32,32S113.7,384,96,384z M144,224c-17.7,0-32-14.3-32-32s14.3-32,32-32s32,14.3,32,32S161.7,224,144,224z
	 M390.8,151.6l-61.3,184c13.7,11.7,22.6,29,22.6,48.4c0,11.7-3.4,22.5-8.9,32H232.9c-5.5-9.5-8.9-20.3-8.9-32
	c0-33.9,26.5-61.4,59.9-63.6l61.3-184c4.2-12.6,17.7-19.5,30.4-15.2C388.2,125.4,394.9,139,390.8,151.6L390.8,151.6z M405.4,208.8
	l15.5-46.6c3.5-1.3,7.1-2.2,11-2.2c17.7,0,32,14.3,32,32s-14.3,32-32,32C420.6,224,411.1,217.7,405.4,208.8L405.4,208.8z M480,384
	c-17.7,0-32-14.3-32-32s14.3-32,32-32s32,14.3,32,32S497.7,384,480,384z"/>
</svg>
