<?xml version="1.0" encoding="utf-8"?>
<!-- Generator: Adobe Illustrator 22.1.0, SVG Export Plug-In . SVG Version: 6.00 Build 0)  -->
<svg version="1.1" id="Ebene_1" xmlns="http://www.w3.org/2000/svg" xmlns:xlink="http://www.w3.org/1999/xlink" x="0px" y="0px"
	 viewBox="0 0 512 512" style="enable-background:new 0 0 512 512;" xml:space="preserve">
<style type="text/css">
	.st0{fill:#8BC34A;}
</style>
<path class="st0" d="M500,384c6.6,0,12,5.4,12,12v40c0,6.6-5.4,12-12,12H12c-6.6,0-12-5.4-12-12V76c0-6.6,5.4-12,12-12h40
	c6.6,0,12,5.4,12,12v308H500z M192,340v-72c0-6.6-5.4-12-12-12h-40c-6.6,0-12,5.4-12,12v72c0,6.6,5.4,12,12,12h40
	C186.6,352,192,346.6,192,340z M384,340V204c0-6.6-5.4-12-12-12h-40c-6.6,0-12,5.4-12,12v136c0,6.6,5.4,12,12,12h40
	C378.6,352,384,346.6,384,340z M288,340V140c0-6.6-5.4-12-12-12h-40c-6.6,0-12,5.4-12,12v200c0,6.6,5.4,12,12,12h40
	C282.6,352,288,346.6,288,340z M480,340V108c0-6.6-5.4-12-12-12h-40c-6.6,0-12,5.4-12,12v232c0,6.6,5.4,12,12,12h40
	C474.6,352,480,346.6,480,340z"/>
</svg>
