<?xml version="1.0" encoding="utf-8"?>
<!-- Generator: Adobe Illustrator 22.1.0, SVG Export Plug-In . SVG Version: 6.00 Build 0)  -->
<svg version="1.1" id="Ebene_1" xmlns="http://www.w3.org/2000/svg" xmlns:xlink="http://www.w3.org/1999/xlink" x="0px" y="0px"
	 viewBox="0 0 576 512" style="enable-background:new 0 0 576 512;" xml:space="preserve">
<style type="text/css">
	.st0{fill:#8BC34A;}
</style>
<path class="st0" d="M480,192H365.7L260.6,8.1c-2.9-5-8.2-8.1-13.9-8.1h-65.5c-10.6,0-18.3,10.2-15.4,20.4l49,171.6H112l-43.2-57.6
	c-3-4-7.8-6.4-12.8-6.4H16c-10.4,0-18,9.8-15.5,19.9L32,256L0.5,364.1C-2,374.2,5.6,384,16,384h40c5,0,9.8-2.4,12.8-6.4L112,320
	h102.9l-49,171.6c-2.9,10.2,4.8,20.4,15.4,20.4h65.5c5.7,0,11-3.1,13.9-8.1L365.7,320H480c35.3,0,96-28.6,96-64S515.3,192,480,192z"
	/>
</svg>
